<svg width="44" height="36" viewBox="0 0 44 36" fill="none" xmlns="http://www.w3.org/2000/svg">
<path d="M29.5 18.0001C29.5 18.1659 29.4341 18.3248 29.3169 18.442C29.1997 18.5593 29.0407 18.6251 28.875 18.6251H16.6336L21.1922 23.1829C21.2502 23.241 21.2963 23.3099 21.3277 23.3858C21.3592 23.4617 21.3753 23.543 21.3753 23.6251C21.3753 23.7072 21.3592 23.7885 21.3277 23.8644C21.2963 23.9403 21.2502 24.0092 21.1922 24.0673C21.1341 24.1254 21.0652 24.1714 20.9893 24.2028C20.9134 24.2343 20.8321 24.2505 20.75 24.2505C20.6679 24.2505 20.5865 24.2343 20.5107 24.2028C20.4348 24.1714 20.3659 24.1254 20.3078 24.0673L14.6828 18.4423C14.6247 18.3842 14.5786 18.3153 14.5471 18.2394C14.5157 18.1636 14.4995 18.0822 14.4995 18.0001C14.4995 17.918 14.5157 17.8366 14.5471 17.7608C14.5786 17.6849 14.6247 17.616 14.6828 17.5579L20.3078 11.9329C20.4251 11.8156 20.5841 11.7498 20.75 11.7498C20.9158 11.7498 21.0749 11.8156 21.1922 11.9329C21.3095 12.0502 21.3753 12.2093 21.3753 12.3751C21.3753 12.541 21.3095 12.7 21.1922 12.8173L16.6336 17.3751H28.875C29.0407 17.3751 29.1997 17.441 29.3169 17.5582C29.4341 17.6754 29.5 17.8343 29.5 18.0001Z" fill="#1C2024"/>
</svg>
